<?xml version="1.0" encoding="UTF-8"?>
<svg id="Layer_2" data-name="Layer 2" xmlns="http://www.w3.org/2000/svg" viewBox="0 0 77.03 77">
  <defs>
    <style>
      .cls-1 {
        fill: #191919;
      }
    </style>
  </defs>
  <g id="footer">
    <g>
      <path class="cls-1" d="M76.99,21.12c0-1.34-.17-2.77-.5-4.26-1.01-4.65-3.38-8.59-7.01-11.7C65.55,1.8,61.06,.08,56.13,.05,47.8-.02,39.32,0,31.13,.01h-8.39c-1.05,.01-2.13,.05-3.21,.12-2.57,.18-5.15,.9-7.66,2.16-2.58,1.3-4.82,3.05-6.67,5.22C1.85,11.44,.11,16,.04,21.03-.01,25.09,0,29.21,0,33.2c0,1.75,0,3.5,0,5.25v4.41c0,4.23,0,8.46,.02,12.69,0,1.18,.11,2.4,.32,3.64,.92,5.39,3.59,9.86,7.95,13.28,3.81,2.98,8.2,4.5,13.05,4.51,5.18,.02,10.36,.02,15.54,.02,6.34,0,12.68,0,19.02,0,2.26-.01,4.54-.41,6.78-1.22,3.65-1.3,6.74-3.43,9.19-6.33,3.35-3.96,5.07-8.47,5.1-13.39,.07-11.85,.04-23.58,0-34.93Zm-8.8,34.38c0,6.07-4.3,11.3-10.24,12.45-.73,.14-1.54,.21-2.4,.22-4.26,.01-8.52,.01-12.78,.01H21.67c-3.11,0-5.85-.95-8.13-2.82-2.69-2.2-4.24-5.04-4.6-8.44-.07-.57-.1-1.2-.1-1.96V21.58c0-6.18,4.21-11.33,10.24-12.52,.72-.14,1.49-.21,2.29-.21,11.43-.02,22.86-.02,34.29-.01,5.88,0,11.02,4.19,12.22,9.94,.2,.94,.3,1.87,.3,2.75,.02,8.94,.02,17.88,.01,26.81v7.16Z"/>
      <path class="cls-1" d="M51.34,25.54c-3.39-3.36-7.84-5.2-12.56-5.2h-.24c-4.73,0-9.21,1.84-12.6,5.2-3.41,3.38-5.3,7.9-5.32,12.74-.01,4.88,1.84,9.43,5.22,12.83,3.39,3.4,7.94,5.28,12.8,5.29h.02c4.84,0,9.36-1.87,12.74-5.25,3.38-3.39,5.32-8.08,5.3-12.87-.02-4.8-1.92-9.33-5.36-12.74Zm-3.47,12.99c-.07,4.93-4.23,9.06-9.12,9.06h-.1c-2.52-.03-4.88-1.04-6.64-2.85-1.7-1.75-2.62-4.04-2.58-6.44,.09-5.15,4.16-9.14,9.3-9.14h.1c2.44,.02,4.72,.99,6.41,2.73,1.73,1.77,2.66,4.13,2.63,6.64Z"/>
      <path class="cls-1" d="M61.67,19.8c0,1.21-.5,2.3-1.3,3.09s-1.91,1.28-3.13,1.28h-.02c-2.42,0-4.37-2-4.36-4.45,0-1.17,.47-2.27,1.31-3.1,.84-.82,1.92-1.28,3.14-1.26,2.41,0,4.37,2,4.36,4.44Z"/>
    </g>
  </g>
</svg>